<svg xmlns="http://www.w3.org/2000/svg" viewBox="0 0 500 500"><g id="freepik--background-complete--inject-2"><rect y="382.4" width="500" height="0.25" style="fill:#ebebeb"></rect><rect x="78.54" y="390.79" width="33.12" height="0.25" style="fill:#ebebeb"></rect><rect x="133.33" y="398" width="30.17" height="0.25" style="fill:#ebebeb"></rect><rect x="56.85" y="400.07" width="38.25" height="0.25" style="fill:#ebebeb"></rect><rect x="434" y="399.53" width="15.9" height="0.25" style="fill:#ebebeb"></rect><rect x="391.47" y="399.53" width="39.32" height="0.25" style="fill:#ebebeb"></rect><rect x="250" y="390.66" width="30.33" height="0.25" style="fill:#ebebeb"></rect><rect x="284.67" y="390.66" width="72.1" height="0.25" style="fill:#ebebeb"></rect><path d="M237,337.8H43.91a5.71,5.71,0,0,1-5.7-5.71V60.66A5.71,5.71,0,0,1,43.91,55H237a5.71,5.71,0,0,1,5.71,5.71V332.09A5.71,5.71,0,0,1,237,337.8ZM43.91,55.2a5.46,5.46,0,0,0-5.45,5.46V332.09a5.46,5.46,0,0,0,5.45,5.46H237a5.47,5.47,0,0,0,5.46-5.46V60.66A5.47,5.47,0,0,0,237,55.2Z" style="fill:#ebebeb"></path><path d="M453.31,337.8H260.21a5.72,5.72,0,0,1-5.71-5.71V60.66A5.72,5.72,0,0,1,260.21,55h193.1A5.71,5.71,0,0,1,459,60.66V332.09A5.71,5.71,0,0,1,453.31,337.8ZM260.21,55.2a5.47,5.47,0,0,0-5.46,5.46V332.09a5.47,5.47,0,0,0,5.46,5.46h193.1a5.47,5.47,0,0,0,5.46-5.46V60.66a5.47,5.47,0,0,0-5.46-5.46Z" style="fill:#ebebeb"></path><rect x="264.62" y="266.21" width="28.77" height="116.19" style="fill:#e6e6e6"></rect><polygon points="281.43 382.4 293.39 382.4 293.39 362.36 268.89 362.36 281.43 382.4" style="fill:#f5f5f5"></polygon><rect x="56.85" y="266.21" width="28.77" height="116.19" style="fill:#e6e6e6"></rect><rect x="75.18" y="266.21" width="218.2" height="109.29" style="fill:#f5f5f5"></rect><path d="M284.61,299.76H84v-23.9H284.61ZM85,298.76H283.61v-21.9H85Z" style="fill:#ebebeb"></path><polygon points="87.14 382.4 75.18 382.4 75.18 362.36 99.68 362.36 87.14 382.4" style="fill:#f5f5f5"></polygon><path d="M284.61,365.85H84v-57H284.61ZM85,364.85H283.61v-55H85Z" style="fill:#ebebeb"></path><rect x="180.49" y="78.52" width="227.38" height="157.46" style="fill:#e6e6e6"></rect><rect x="184.67" y="78.52" width="227.38" height="157.46" style="fill:#f5f5f5"></rect><rect x="227.58" y="51.07" width="141.56" height="212.37" transform="translate(455.61 -141.1) rotate(90)" style="fill:#fff"></rect><rect x="332.18" y="155.67" width="141.56" height="3.16" transform="translate(560.22 -245.71) rotate(90)" style="fill:#e6e6e6"></rect><rect x="187.77" y="99.15" width="221.17" height="5.34" style="fill:#f5f5f5"></rect><g style="opacity:0.5"><rect x="399.35" y="73.26" width="8.98" height="174.89" style="fill:#f0f0f0"></rect><rect x="387.94" y="73.26" width="8.98" height="174.89" style="fill:#f0f0f0"></rect><rect x="376.53" y="73.26" width="8.98" height="174.89" style="fill:#f0f0f0"></rect><rect x="365.13" y="73.26" width="8.98" height="174.89" style="fill:#f0f0f0"></rect><rect x="353.72" y="73.26" width="8.98" height="174.89" style="fill:#f0f0f0"></rect><rect x="342.31" y="73.26" width="8.98" height="174.89" style="fill:#f0f0f0"></rect><rect x="330.91" y="73.26" width="8.98" height="174.89" style="fill:#f0f0f0"></rect><rect x="319.5" y="73.26" width="8.98" height="174.89" style="fill:#f0f0f0"></rect><rect x="308.09" y="73.26" width="8.98" height="174.89" style="fill:#f0f0f0"></rect><rect x="296.68" y="73.26" width="8.98" height="174.89" style="fill:#f0f0f0"></rect><rect x="285.28" y="73.26" width="8.98" height="174.89" style="fill:#f0f0f0"></rect><rect x="273.87" y="73.26" width="8.98" height="174.89" style="fill:#f0f0f0"></rect><rect x="262.46" y="73.26" width="8.98" height="174.89" style="fill:#f0f0f0"></rect><rect x="251.05" y="73.26" width="8.98" height="174.89" style="fill:#f0f0f0"></rect><rect x="239.65" y="73.26" width="8.98" height="174.89" style="fill:#f0f0f0"></rect></g><rect x="62.35" y="97.33" width="65.9" height="119.84" style="fill:#f0f0f0"></rect><rect x="66.6" y="97.33" width="75.8" height="119.84" style="fill:#f5f5f5"></rect><rect x="47.42" y="122.44" width="114.16" height="69.62" transform="translate(-52.75 261.75) rotate(-90)" style="fill:#fff"></rect><rect x="67.38" y="141" width="74.24" height="32.51" rx="2.76" transform="translate(-52.75 261.75) rotate(-90)" style="fill:#f5f5f5"></rect><path d="M383.91,197.29l13.48,33.22c-.39,96.09,3.95,101.63,4,118.16h-34C366.13,268.24,378.06,286.32,383.91,197.29Z" style="fill:#ebebeb"></path><path d="M402.91,295.42c-27.39-75.41-90.45-52.06-87.62-24.57S418.66,338.79,402.91,295.42Z" style="fill:#ebebeb"></path><path d="M392.55,338.9c-14.94-48.59-54.68-40.66-54.68-18.33S401.15,366.85,392.55,338.9Z" style="fill:#ebebeb"></path><path d="M391.49,251.18c-23.46-65-81.89-56-77.18-28.61S405,288.54,391.49,251.18Z" style="fill:#ebebeb"></path><path d="M391.65,222.05c2.17-44.26-41.66-62.48-38.62-36S390.4,247.5,391.65,222.05Z" style="fill:#ebebeb"></path><path d="M388.38,267.36c9.25-54.54,65.42-75.28,59.14-44.41S383.05,298.73,388.38,267.36Z" style="fill:#ebebeb"></path><path d="M383.65,236.53c-10.91-57.19,39.55-82.6,41-55S389.92,269.42,383.65,236.53Z" style="fill:#ebebeb"></path><path d="M379.27,301.13c22.29-55.11,70-41.44,65.21-16.36S366.45,332.83,379.27,301.13Z" style="fill:#ebebeb"></path><path d="M390.27,339.61c-.5-35.55,31.78-44.74,32.16-24.14S390.56,360.06,390.27,339.61Z" style="fill:#ebebeb"></path><path d="M380.41,382.65h0a37.13,37.13,0,0,1-36.35-29,75.73,75.73,0,0,0-3.79-13l-.27-.68h80.83l-.28.68a75.7,75.7,0,0,0-3.78,13A37.14,37.14,0,0,1,380.41,382.65Z" style="fill:#e0e0e0"></path></g><g id="freepik--Cloud--inject-2"><path d="M129.37,213.94l-.63-.77a66.77,66.77,0,0,1,8.2-5.72l.51.87A65.79,65.79,0,0,0,129.37,213.94Z" style="fill:#FF725E"></path><path d="M108.83,242.52l-.93-.35a68.71,68.71,0,0,1,15.67-24.35l.71.71A67.82,67.82,0,0,0,108.83,242.52Z" style="fill:#FF725E"></path><path d="M302.57,286.59a53.28,53.28,0,0,0-73.21-48.95,64.38,64.38,0,0,0-120.7,14.25,55.4,55.4,0,0,0,3.61,110.69H288.59a39.28,39.28,0,0,0,14-76Z" style="fill:#FF725E"></path><path d="M262.91,268.69H121.81a4.35,4.35,0,0,1-4.33-4.34h0a4.34,4.34,0,0,1,4.33-4.33h141.1a4.34,4.34,0,0,1,4.33,4.33h0A4.35,4.35,0,0,1,262.91,268.69Z" style="fill:#263238"></path><path d="M241.63,327.29H143.09a14.56,14.56,0,1,1,0-29.12h98.54a14.56,14.56,0,1,1,0,29.12Zm-98.54-28.12a13.56,13.56,0,1,0,0,27.12h98.54a13.56,13.56,0,1,0,0-27.12Z" style="fill:#fff"></path><path d="M166.11,323.79h-23A11.1,11.1,0,0,1,132,312.73h0a11.1,11.1,0,0,1,11.06-11.07h23a11.1,11.1,0,0,1,11.06,11.07h0A11.1,11.1,0,0,1,166.11,323.79Z" style="fill:#fff"></path><polygon points="266.94 184.63 248.23 264.35 136.61 264.35 167.83 131.3 245.12 149.43 266.94 184.63" style="fill:#FF725E"></polygon><polygon points="266.94 184.63 248.23 264.35 136.61 264.35 167.83 131.3 245.12 149.43 266.94 184.63" style="fill:#fafafa;opacity:0.8"></polygon><path d="M252.38,199.45l-84.78-19.9a2.26,2.26,0,0,1-1.69-2.72h0a2.27,2.27,0,0,1,2.72-1.7L253.42,195a2.28,2.28,0,0,1,1.69,2.73h0A2.29,2.29,0,0,1,252.38,199.45Z" style="fill:#FF725E"></path><path d="M249.14,213.25l-84.78-19.9a2.27,2.27,0,0,1-1.69-2.73h0a2.28,2.28,0,0,1,2.73-1.69l84.78,19.9a2.27,2.27,0,0,1,1.69,2.72h0A2.28,2.28,0,0,1,249.14,213.25Z" style="fill:#FF725E"></path><path d="M245.9,227l-84.78-19.89a2.28,2.28,0,0,1-1.69-2.73h0a2.29,2.29,0,0,1,2.73-1.69l84.78,19.89a2.27,2.27,0,0,1,1.69,2.73h0A2.27,2.27,0,0,1,245.9,227Z" style="fill:#FF725E"></path><path d="M242.67,240.84,157.88,221a2.29,2.29,0,0,1-1.69-2.73h0a2.28,2.28,0,0,1,2.73-1.69l84.78,19.89a2.29,2.29,0,0,1,1.7,2.73h0A2.27,2.27,0,0,1,242.67,240.84Z" style="fill:#FF725E"></path><path d="M205.72,246.73l-51.07-12A2.27,2.27,0,0,1,153,232h0a2.26,2.26,0,0,1,2.72-1.69l51.08,12a2.27,2.27,0,0,1,1.69,2.73h0A2.27,2.27,0,0,1,205.72,246.73Z" style="fill:#FF725E"></path><polygon points="266.94 184.63 238.43 177.94 245.12 149.43 266.94 184.63" style="fill:#FF725E"></polygon></g></svg>